<svg xmlns="http://www.w3.org/2000/svg" viewBox="0 0 1444 1212" role="img" aria-label="MABRO"><g fill-rule="evenodd" transform="translate(-35 -78)"><path fill="#E30613" d="M386,586C384,583 380,566 375,534C371,504 371,455 376,420C379,395 390,353 397,339C397,337 399,332 401,328C429,256 485,188 554,143C568,133 598,117 607,113C609,113 615,110 622,107C651,95 697,83 731,80C754,77 810,78 829,82C900,94 950,114 1010,155C1036,174 1076,213 1096,242C1115,268 1133,300 1133,306C1133,307 1133,307 1132,306C1132,304 1128,300 1127,300C1125,300 1126,303 1129,305C1132,308 1132,308 1121,304C1110,300 1110,300 1109,295C1108,285 1093,269 1078,261C1069,257 1059,255 1022,249C1015,248 1005,246 1002,246C998,245 992,244 990,244C987,243 981,242 978,242C968,240 930,234 912,233C883,230 880,229 865,215C858,208 842,199 819,190C817,189 812,186 807,184C795,178 775,170 771,168C763,165 762,168 762,197C762,217 763,227 765,235C765,237 765,237 763,234C762,232 761,231 760,231C758,231 759,236 762,239C763,241 762,240 759,237C756,234 753,232 751,232C746,232 721,240 710,245C707,247 704,248 703,248C703,248 701,249 699,249C697,250 690,253 683,256C662,264 620,285 594,301C584,307 549,331 542,336C539,338 532,344 526,348C474,388 420,448 398,489C391,504 394,504 410,492C419,484 461,452 468,447C470,445 476,441 480,438C485,435 491,430 495,428C499,425 505,421 508,419C512,417 518,413 522,410C529,406 548,396 554,393L558,392L555,395C552,397 552,398 553,399C554,401 557,399 559,396C561,389 560,396 556,408C550,424 534,456 528,464C519,474 515,478 501,488C488,497 484,500 461,518C437,538 426,548 405,571C390,587 388,588 386,586ZM1035,314C1034,314 1030,310 1026,305C1019,298 1018,297 1010,293C1000,290 996,287 1002,289C1009,291 1011,288 1004,285C1001,284 1001,284 1003,284C1004,284 1008,285 1012,286C1016,288 1023,290 1027,291C1034,292 1051,296 1063,300L1069,302L1065,302C1056,304 1057,308 1065,306C1068,306 1063,308 1054,310C1038,315 1038,315 1035,314Z"/><path fill="#111214" d="M259,879C262,872 282,840 290,830C302,815 320,795 330,786C347,772 349,770 349,773C349,773 344,779 338,786C313,813 288,845 291,847C292,848 298,845 302,841C308,836 337,818 359,805C428,766 503,737 576,723C618,714 641,712 684,710C702,710 749,712 754,714C759,715 762,711 760,706C750,688 744,650 747,628C749,619 746,619 733,627C725,633 725,633 725,615C726,596 730,580 739,559C743,550 740,549 729,554C720,559 719,559 719,554C720,551 722,545 723,539C737,498 763,461 794,436C809,424 832,410 833,413C833,414 828,419 822,425C811,435 808,438 795,454C777,477 755,524 762,524C763,524 766,521 770,518C780,509 803,496 805,498C805,499 801,504 795,509C779,526 768,541 757,566C750,580 748,588 749,589C750,591 749,592 771,583C798,572 811,569 834,569C860,569 878,573 902,584C930,598 965,631 974,652C976,658 977,664 976,680C975,686 978,686 984,681C998,672 1008,660 1024,637C1032,624 1033,622 1036,613C1038,606 1041,600 1047,592C1052,586 1057,577 1057,575C1057,572 1055,573 1050,576C1032,586 1010,589 989,585C952,577 936,563 932,537C929,514 940,489 965,464C978,451 978,449 965,453C961,454 957,455 955,455L952,455L956,452C966,443 1017,431 1048,430C1070,430 1103,435 1132,444C1144,448 1144,448 1144,462C1143,480 1134,508 1125,525C1123,530 1120,535 1119,536C1116,543 1102,562 1092,574C1088,579 1086,583 1088,583C1089,583 1095,580 1098,578C1137,551 1166,521 1196,475C1200,468 1206,460 1209,457C1220,447 1229,431 1240,404C1247,387 1248,383 1246,378C1244,375 1229,361 1225,359C1224,359 1224,358 1224,358C1226,356 1253,375 1256,379C1259,385 1257,393 1245,422C1234,448 1233,451 1223,464C1218,470 1210,482 1203,493C1197,503 1187,518 1181,527C1168,546 1169,544 1165,560C1156,603 1146,630 1129,664C1085,748 1009,817 920,852C879,868 848,875 800,879C756,883 688,875 650,861C620,850 605,844 585,834C557,818 528,799 504,777C496,770 494,768 491,768C487,768 475,772 457,779C449,782 442,785 441,786C437,787 420,794 410,799C405,801 399,804 396,805C386,809 341,833 328,840C304,854 293,860 291,862C290,863 283,868 276,872C270,876 264,880 264,881C263,882 262,882 260,882C258,882 258,882 259,879ZM280,773C280,770 285,755 289,747C290,743 292,739 293,736C295,732 304,712 308,706C312,699 322,682 324,680C325,678 330,673 330,674C330,674 330,675 329,676C328,676 328,677 328,678C328,678 327,681 326,683C321,689 296,741 296,743C297,745 299,744 311,733C323,723 345,704 360,692C364,688 371,683 375,679C379,675 385,670 388,668C392,666 396,662 399,659C402,657 408,652 412,649C417,645 424,640 428,637C438,629 460,613 485,596C509,579 536,565 550,561C559,559 559,560 551,582C536,626 523,645 500,660C487,667 477,674 456,688C441,698 439,699 437,698C435,696 427,684 423,677C422,674 420,672 418,671C416,671 392,687 377,698C374,700 368,705 363,709C347,720 339,727 322,741C316,746 310,751 307,753C305,755 298,761 293,766C281,775 280,776 280,773Z"/></g><g fill-rule="evenodd" transform="translate(-136.4 -107.8) scale(1.176)"><path fill="#111214" d="M1208,1122C1197,1121 1192,1120 1177,1114C1169,1111 1167,1110 1156,1101C1137,1087 1117,1056 1114,1034C1113,1029 1111,1022 1110,1018C1106,1003 1106,990 1110,972C1112,967 1113,959 1114,956C1115,947 1119,939 1129,922C1136,912 1141,906 1156,891C1163,885 1181,876 1190,874C1193,873 1200,872 1205,870C1217,867 1236,867 1250,870C1270,874 1273,875 1283,880C1302,890 1330,920 1334,936C1335,938 1337,944 1339,949C1344,961 1344,963 1345,990C1345,1019 1345,1027 1338,1046C1335,1054 1333,1062 1333,1064C1332,1065 1330,1069 1328,1071C1327,1074 1324,1078 1322,1081C1318,1088 1308,1098 1304,1101C1301,1102 1297,1105 1294,1107C1292,1109 1288,1111 1287,1111C1286,1112 1281,1114 1276,1116C1272,1117 1265,1120 1262,1120C1253,1122 1223,1123 1208,1122ZM326,1121C322,1120 319,1119 317,1116C315,1114 315,1107 315,1058C315,1017 315,1002 314,1000C313,997 310,996 308,997C305,998 296,1010 293,1017C292,1020 291,1024 290,1024C288,1027 266,1075 264,1082C261,1089 254,1098 249,1100C245,1101 235,1099 232,1096C230,1094 225,1087 216,1068C213,1063 208,1055 205,1050C202,1046 199,1039 197,1036C195,1032 193,1028 192,1026C191,1025 188,1020 186,1015C181,1004 177,1000 174,1001C170,1003 170,1006 170,1061C170,1096 170,1115 169,1116C167,1120 163,1121 145,1121C125,1121 119,1120 117,1116C116,1113 117,881 118,878C120,874 127,873 145,873C161,873 163,874 166,876C168,878 177,892 187,910C197,931 199,935 204,946C213,965 218,975 223,983C225,987 229,995 232,1000C236,1008 238,1010 240,1011C246,1012 251,1009 255,1001C256,998 258,994 260,992C261,990 262,986 263,984C264,982 266,977 267,974C269,970 272,965 273,961C275,958 277,953 279,951C280,948 284,941 288,934C291,927 295,920 296,918C297,915 299,911 300,908C301,906 304,901 305,899C307,896 309,891 311,888C317,875 322,873 344,873C360,874 363,874 365,880C366,883 366,1113 365,1116C363,1120 358,1121 344,1122C337,1122 329,1121 326,1121ZM588,1121C575,1120 571,1116 567,1104C560,1081 559,1077 555,1074L552,1072L510,1072C468,1072 468,1072 465,1074C460,1078 458,1081 455,1091C452,1105 446,1116 442,1119C436,1122 395,1122 393,1118C392,1116 393,1111 397,1100C399,1095 402,1086 404,1080C406,1074 409,1065 410,1061C412,1057 414,1051 415,1048C415,1044 418,1038 420,1033C422,1028 424,1022 425,1020C426,1018 427,1013 429,1011C431,1009 433,1003 434,1000C435,996 437,991 439,989C440,986 442,981 443,977C444,972 446,967 447,966C448,964 450,959 451,955C453,951 455,946 456,944C457,942 459,937 460,933C461,928 463,923 465,920C466,917 468,912 469,907C470,903 472,897 473,895C475,893 476,888 477,885C478,882 479,878 481,877L484,874L506,873C518,873 529,873 531,873C537,875 545,884 547,893C548,896 550,902 552,907C555,912 557,919 558,921C559,923 560,927 562,929C563,931 565,936 565,940C566,943 569,951 571,956C573,962 576,970 577,975C578,980 580,987 581,990C584,996 589,1010 594,1024C596,1028 598,1034 600,1037C601,1040 604,1045 604,1048C605,1051 608,1057 609,1061C611,1065 613,1070 613,1072C614,1074 616,1078 617,1082C619,1086 621,1091 622,1093C623,1095 625,1101 627,1105C631,1113 632,1116 629,1119C627,1121 627,1121 612,1121C603,1121 593,1121 588,1121ZM900,1121C897,1121 894,1118 893,1115C891,1112 892,1026 894,953C894,933 895,908 894,898L894,879L896,877C901,872 903,872 958,872C1016,873 1027,874 1032,878C1033,880 1037,882 1040,883C1050,887 1066,902 1071,913C1076,923 1082,941 1085,950C1087,957 1086,972 1083,979C1082,981 1080,987 1079,992C1074,1007 1070,1014 1054,1028C1041,1041 1040,1044 1049,1057C1052,1061 1055,1066 1056,1069C1058,1072 1061,1076 1063,1079C1064,1081 1068,1087 1071,1093C1074,1098 1078,1105 1080,1107C1086,1115 1086,1118 1081,1121C1076,1123 1028,1122 1024,1120C1023,1119 1020,1116 1018,1112C1017,1108 1015,1104 1014,1104C1014,1103 1011,1098 1008,1093C1006,1088 1003,1082 1002,1080C1001,1079 998,1074 996,1069C989,1055 984,1051 967,1051C959,1051 958,1051 955,1053C950,1058 950,1060 949,1088L948,1114L945,1118L941,1121L928,1121C921,1121 913,1121 909,1121C905,1122 901,1122 900,1121ZM662,1120C659,1120 657,1117 656,1113C655,1110 654,1081 654,996C653,934 653,882 653,880C653,878 654,877 656,875L658,873L713,873C781,873 800,874 804,877C805,878 810,881 814,883C824,888 833,898 838,907C842,915 845,935 844,943C843,946 842,952 842,957C840,966 837,971 830,978C823,985 823,993 831,999C842,1007 848,1017 856,1038C862,1057 856,1081 840,1099C833,1107 820,1114 812,1115C809,1116 805,1117 801,1118C795,1120 793,1120 730,1121C694,1121 664,1121 662,1120ZM771,1076C778,1075 791,1069 792,1066C793,1065 795,1061 797,1058C802,1050 802,1043 796,1034C791,1026 790,1025 778,1021L769,1018L742,1018L716,1018L714,1020C710,1024 709,1029 709,1046C709,1071 711,1076 722,1077C730,1078 765,1077 771,1076ZM1245,1071C1256,1067 1269,1055 1277,1042C1283,1032 1282,1034 1289,1001C1290,996 1289,989 1285,971C1283,958 1278,949 1272,942C1269,940 1266,936 1264,933C1262,930 1259,928 1253,925L1244,921L1229,921L1213,922L1206,925C1191,933 1177,950 1172,969C1171,974 1171,980 1171,1000L1172,1024L1178,1036C1184,1049 1189,1055 1201,1065C1211,1073 1229,1076 1245,1071ZM528,1022C535,1021 536,1019 536,1010C535,1005 535,1002 532,997C530,993 529,988 528,985C527,982 526,978 524,975C521,971 518,963 518,958C518,956 515,951 513,951C508,949 504,954 500,966C499,970 497,975 496,977C495,979 493,986 491,993C489,999 487,1006 486,1008C483,1013 483,1017 486,1020C489,1022 516,1024 528,1022ZM996,1002C1011,998 1019,989 1022,971C1023,960 1023,954 1019,942C1014,927 997,920 969,921C950,922 950,922 950,961C950,1003 950,1003 976,1003C985,1003 993,1002 996,1002ZM765,973C776,969 779,967 785,959C793,949 793,945 788,934C782,921 775,918 744,918C711,918 711,919 710,946C710,975 710,975 740,975C755,974 761,974 765,973Z"/></g></svg>